HIERARCHY
ROOT joint_Root
{
	OFFSET 0.0 0.0 0.0
	CHANNELS 6 Xposition Yposition Zposition Zrotation Xrotation Yrotation 
	JOINT Hips
	{
		OFFSET -17.1583 93.1646 452.98
		CHANNELS 6 Xposition Yposition Zposition Zrotation Xrotation Yrotation 
		JOINT Spine
		{
			OFFSET 15.7357 0.0 0.0
			CHANNELS 6 Xposition Yposition Zposition Zrotation Xrotation Yrotation 
			JOINT Chest
			{
				OFFSET 8.98455 -0.406207 0.0
				CHANNELS 6 Xposition Yposition Zposition Zrotation Xrotation Yrotation 
				JOINT Neck
				{
					OFFSET 16.3773 0.0 0.0
					CHANNELS 6 Xposition Yposition Zposition Zrotation Xrotation Yrotation 
					JOINT Head
					{
						OFFSET 6.45672 0.0 0.0
						CHANNELS 6 Xposition Yposition Zposition Zrotation Xrotation Yrotation 
						End Site
						{
							OFFSET 0.0 0.0 0.0
						}
					}
				}
				JOINT Shoulder_L
				{
					OFFSET 12.9942 -0.242716 4.98039
					CHANNELS 6 Xposition Yposition Zposition Zrotation Xrotation Yrotation 
					JOINT UpperArm_L
					{
						OFFSET 5.34809 0.0 0.0
						CHANNELS 6 Xposition Yposition Zposition Zrotation Xrotation Yrotation 
						JOINT LowerArm_L
						{
							OFFSET 24.3286 1.87007e-05 0.0
							CHANNELS 6 Xposition Yposition Zposition Zrotation Xrotation Yrotation 
							JOINT Hand_L
							{
								OFFSET 22.2916 0.0 0.0
								CHANNELS 6 Xposition Yposition Zposition Zrotation Xrotation Yrotation 
								End Site
								{
									OFFSET 0.0 0.0 0.0
								}
							}
						}
					}
				}
				JOINT Shoulder_R
				{
					OFFSET 12.9945 -0.242716 -4.98039
					CHANNELS 6 Xposition Yposition Zposition Zrotation Xrotation Yrotation 
					JOINT UpperArm_R
					{
						OFFSET -5.34813 0.0 0.0
						CHANNELS 6 Xposition Yposition Zposition Zrotation Xrotation Yrotation 
						JOINT LowerArm_R
						{
							OFFSET -24.3289 0.000322201 0.0
							CHANNELS 6 Xposition Yposition Zposition Zrotation Xrotation Yrotation 
							JOINT Hand_R
							{
								OFFSET -22.2915 -0.000108084 0.0
								CHANNELS 6 Xposition Yposition Zposition Zrotation Xrotation Yrotation 
								End Site
								{
									OFFSET 0.0 0.0 0.0
								}
							}
						}
					}
				}
			}
		}
		JOINT UpperLeg_L
		{
			OFFSET -2.19248 -6.46944 0.0
			CHANNELS 6 Xposition Yposition Zposition Zrotation Xrotation Yrotation 
			JOINT LowerLeg_L
			{
				OFFSET 39.0811 0.0 -1.23785e-05
				CHANNELS 6 Xposition Yposition Zposition Zrotation Xrotation Yrotation 
				JOINT Foot_L
				{
					OFFSET 40.9854 0.0 -1.26872e-05
					CHANNELS 6 Xposition Yposition Zposition Zrotation Xrotation Yrotation 
					JOINT Toes_L
					{
						OFFSET 11.7543 0.0 0.0
						CHANNELS 6 Xposition Yposition Zposition Zrotation Xrotation Yrotation 
						End Site
						{
							OFFSET 0.0 0.0 0.0
						}
					}
				}
			}
		}
		JOINT UpperLeg_R
		{
			OFFSET -2.19251 6.46944 0.0
			CHANNELS 6 Xposition Yposition Zposition Zrotation Xrotation Yrotation 
			JOINT LowerLeg_R
			{
				OFFSET -39.0811 -0.00228153 -0.0401928
				CHANNELS 6 Xposition Yposition Zposition Zrotation Xrotation Yrotation 
				JOINT Foot_R
				{
					OFFSET -40.9854 0.0 0.0
					CHANNELS 6 Xposition Yposition Zposition Zrotation Xrotation Yrotation 
					JOINT Toes_R
					{
						OFFSET -11.7543 0.0 0.0
						CHANNELS 6 Xposition Yposition Zposition Zrotation Xrotation Yrotation 
						End Site
						{
							OFFSET 0.0 0.0 0.0
						}
					}
				}
			}
		}
	}
}
MOTION
Frames:	8
Frame Time:	0.0333333
0.000000 0.000000 0.000000 0.000000 0.000000 -0.000000 -2.591660 92.708500 2.635970 87.718900 0.766347 2.977010 15.735700 0.000005 -0.000001 86.109600 86.412900 -84.845800 8.984550 -0.406207 -0.000000 -0.600623 -0.578902 2.523440 16.377300 -0.000001 -0.000001 0.434968 1.721220 -1.554800 6.456720 -0.000001 -0.000000 3.767170 2.814320 0.533306 12.994200 -0.242716 4.980390 -92.579500 8.113470 -72.296500 5.348090 -0.000007 -0.000001 -73.549400 22.291200 1.670460 24.328600 0.000019 0.000005 11.689500 25.728400 -25.482800 22.291600 -0.000001 0.000005 -2.191210 4.993090 7.466070 12.994500 -0.242716 -4.980390 88.933400 3.786590 -74.255600 -5.348130 -0.000001 -0.000004 -73.778500 29.447400 -5.381470 -24.328900 0.000322 -0.000009 0.283020 1.704610 -9.463980 -22.291500 -0.000108 -0.000004 -9.477240 5.179960 3.216970 -2.192480 -6.469440 -0.000000 -171.842000 -5.474790 2.283650 39.081100 -0.000007 -0.000012 0.018296 -0.062935 16.210400 40.985400 -0.000006 -0.000013 -1.428460 13.217900 -70.123100 11.754300 -0.000000 0.000003 -0.001583 0.190992 -8.828540 -2.192510 6.469440 -0.000001 179.179000 5.767820 -175.773000 -39.081100 -0.002282 -0.040193 0.031083 -0.115137 13.550900 -40.985400 0.000008 0.000006 -3.766430 4.023450 -70.209100 -11.754300 -0.000006 -0.000006 -0.011039 0.278910 -5.239830
0.000000 0.000000 0.000000 0.000000 0.000000 -0.000000 -2.512860 92.708800 2.674490 87.682700 0.627268 2.889530 15.735700 0.000005 -0.000001 85.231700 86.425000 -84.145500 8.984550 -0.406207 -0.000000 -0.633423 -0.673810 2.167600 16.377300 -0.000001 -0.000001 0.279103 1.774150 -1.747800 6.456720 -0.000001 -0.000000 3.548200 2.907760 -0.083081 12.994200 -0.242716 4.980390 -92.647800 8.286020 -72.209100 5.348090 -0.000007 -0.000001 -73.132400 20.813500 1.956070 24.328600 0.000019 0.000005 11.791100 25.719000 -25.689000 22.291600 -0.000001 0.000005 -1.954090 4.984660 7.644170 12.994500 -0.242716 -4.980390 88.811100 4.103320 -73.826000 -5.348130 -0.000001 -0.000004 -72.500900 27.436100 -6.547730 -24.328900 0.000322 -0.000009 0.379504 2.602350 -8.322860 -22.291500 -0.000108 -0.000004 -10.604500 5.182060 3.165490 -2.192480 -6.469440 -0.000000 -171.850000 -5.675560 2.232440 39.081100 -0.000007 -0.000012 0.018296 -0.062772 16.250300 40.985400 -0.000006 -0.000013 -1.364020 13.227200 -70.181500 11.754300 -0.000000 0.000003 -0.001626 0.191567 -8.805170 -2.192510 6.469440 -0.000001 179.133000 5.814210 -175.792000 -39.081100 -0.002282 -0.040193 0.029369 -0.108892 13.447200 -40.985400 0.000008 0.000006 -3.863330 4.217170 -70.142000 -11.754300 -0.000006 -0.000006 -0.010959 0.278337 -5.263280
0.000000 0.000000 0.000000 0.000000 0.000000 -0.000000 -2.420680 92.712700 2.718270 87.649500 0.522317 2.774540 15.735700 0.000005 -0.000001 83.599400 86.445600 -82.750400 8.984550 -0.406207 -0.000000 -0.694600 -0.854980 1.691880 16.377300 -0.000001 -0.000001 0.178087 1.807480 -1.974920 6.456720 -0.000001 -0.000000 3.256500 3.023830 -0.881529 12.994200 -0.242716 4.980390 -92.694700 8.446640 -72.233600 5.348090 -0.000007 -0.000001 -72.599100 19.619400 2.286210 24.328600 0.000019 0.000005 11.884500 25.714900 -25.874500 22.291600 -0.000001 0.000005 -1.905500 4.991250 7.505020 12.994500 -0.242716 -4.980390 88.771000 4.139670 -73.448500 -5.348130 -0.000001 -0.000004 -70.700700 24.638500 -8.106010 -24.328900 0.000322 -0.000009 0.502776 3.926980 -7.317230 -22.291500 -0.000108 -0.000004 -12.117400 5.175490 3.326670 -2.192480 -6.469440 -0.000000 -171.895000 -5.743520 2.167870 39.081100 -0.000007 -0.000012 0.019171 -0.065738 16.258000 40.985400 -0.000006 -0.000013 -1.297240 13.165600 -70.242800 11.754300 -0.000000 0.000003 -0.001537 0.190397 -8.852740 -2.192510 6.469440 -0.000001 179.052000 5.869980 -175.810000 -39.081100 -0.002282 -0.040193 0.026083 -0.096246 13.299200 -40.985400 0.000008 0.000006 -4.098820 4.479420 -70.022900 -11.754300 -0.000006 -0.000006 -0.011309 0.280838 -5.160910
0.000000 0.000000 0.000000 0.000000 0.000000 -0.000000 -2.328610 92.711500 2.767390 87.576600 0.449151 2.649010 15.735700 0.000005 -0.000001 82.148400 86.478200 -81.603800 8.984550 -0.406207 -0.000000 -0.783506 -1.002620 1.081900 16.377300 -0.000001 -0.000001 0.095460 1.760840 -2.216220 6.456720 -0.000001 -0.000000 2.962160 3.019820 -1.824810 12.994200 -0.242716 4.980390 -92.706900 8.541270 -72.341800 5.348090 -0.000007 -0.000001 -71.911900 19.267500 2.530820 24.328600 0.000019 0.000005 11.951500 25.634600 -26.071000 22.291600 -0.000001 0.000005 -1.909090 4.989460 7.542830 12.994500 -0.242716 -4.980390 88.785100 3.973790 -72.984400 -5.348130 -0.000001 -0.000004 -67.819300 22.044100 -10.095700 -24.328900 0.000322 -0.000009 0.617609 5.353130 -6.602130 -22.291500 -0.000108 -0.000004 -14.007400 5.186460 3.056490 -2.192480 -6.469440 -0.000000 -171.892000 -5.877480 2.028560 39.081100 -0.000007 -0.000012 0.019581 -0.066659 16.370000 40.985400 -0.000006 -0.000013 -1.208970 13.170300 -70.323400 11.754300 -0.000000 0.000003 -0.001434 0.189022 -8.908640 -2.192510 6.469440 -0.000001 179.003000 6.056520 -175.826000 -39.081100 -0.002282 -0.040193 0.022580 -0.082476 13.135200 -40.985400 0.000008 0.000006 -4.306370 4.764860 -69.872900 -11.754300 -0.000006 -0.000006 -0.010897 0.277888 -5.281650
0.000000 0.000000 0.000000 0.000000 0.000000 -0.000000 -2.232720 92.717600 2.817350 87.461700 0.182392 2.541510 15.735700 0.000005 -0.000001 82.187700 86.523600 -82.025900 8.984550 -0.406207 -0.000000 -0.876328 -0.957084 0.316189 16.377300 -0.000001 -0.000001 -0.005575 1.715690 -2.532760 6.456720 -0.000001 -0.000000 2.740000 2.903540 -2.700030 12.994200 -0.242716 4.980390 -92.710000 8.596050 -72.428000 5.348090 -0.000007 -0.000001 -71.046700 18.948600 2.657680 24.328600 0.000019 0.000005 12.091300 25.680900 -26.304500 22.291600 -0.000001 0.000005 -2.243160 4.994590 7.434410 12.994500 -0.242716 -4.980390 88.817800 3.786380 -72.646300 -5.348130 -0.000001 -0.000004 -63.302800 20.363200 -12.526400 -24.328900 0.000322 -0.000009 0.691747 6.492540 -6.104140 -22.291500 -0.000108 -0.000004 -15.952300 5.192930 2.895950 -2.192480 -6.469440 -0.000000 -171.840000 -6.116860 1.994930 39.081100 -0.000007 -0.000012 0.020473 -0.069510 16.411900 40.985400 -0.000006 -0.000013 -1.146590 13.092200 -70.431700 11.754300 -0.000000 0.000003 -0.001487 0.189730 -8.879860 -2.192510 6.469440 -0.000001 178.971000 6.109910 -175.809000 -39.081100 -0.002282 -0.040193 0.017005 -0.059756 12.886500 -40.985400 0.000008 0.000006 -4.657330 5.164310 -69.583900 -11.754300 -0.000006 -0.000006 -0.010715 0.276576 -5.335360
0.000000 0.000000 0.000000 0.000000 0.000000 -0.000000 -2.142550 92.711800 2.909280 87.297700 -0.178955 2.490070 15.735700 0.000005 -0.000001 82.780300 86.556200 -83.064500 8.984550 -0.406207 -0.000000 -0.935032 -0.843842 -0.574936 16.377300 -0.000001 -0.000001 -0.179650 1.712040 -2.947640 6.456720 -0.000001 -0.000000 2.569230 2.788210 -3.600900 12.994200 -0.242716 4.980390 -92.717300 8.598440 -72.388300 5.348090 -0.000007 -0.000001 -70.066300 18.422500 2.703470 24.328600 0.000019 0.000005 12.224700 25.723800 -26.527100 22.291600 -0.000001 0.000005 -2.264560 4.996860 7.386260 12.994500 -0.242716 -4.980390 88.918800 3.412840 -72.410100 -5.348130 -0.000001 -0.000004 -57.946500 17.587500 -15.171400 -24.328900 0.000322 -0.000009 0.702397 7.538520 -5.346640 -22.291500 -0.000108 -0.000004 -16.505700 5.207900 2.520780 -2.192480 -6.469440 -0.000000 -171.741000 -6.298190 2.014670 39.081100 -0.000007 -0.000012 0.020501 -0.069010 16.545600 40.985400 -0.000006 -0.000013 -1.089860 12.900100 -70.605600 11.754300 -0.000000 0.000003 -0.001803 0.193853 -8.712230 -2.192510 6.469440 -0.000001 178.960000 6.278090 -175.717000 -39.081100 -0.002282 -0.040193 0.012261 -0.039743 12.659100 -40.985400 0.000008 0.000006 -4.918740 5.747710 -69.381800 -11.754300 -0.000006 -0.000006 -0.010985 0.278522 -5.255690
0.000000 0.000000 0.000000 0.000000 0.000000 -0.000000 -2.047320 92.692400 3.014700 87.142700 -0.552659 2.480670 15.735700 0.000005 -0.000001 84.280000 86.594700 -85.074800 8.984550 -0.406207 -0.000000 -0.993200 -0.617903 -1.594210 16.377300 -0.000001 -0.000001 -0.300265 1.732260 -3.483970 6.456720 -0.000001 -0.000000 2.418830 2.517080 -4.530600 12.994200 -0.242716 4.980390 -92.741000 8.617430 -72.280300 5.348090 -0.000007 -0.000001 -68.908400 17.835400 2.559550 24.328600 0.000019 0.000005 12.302900 25.819000 -26.598900 22.291600 -0.000001 0.000005 -2.017380 4.994160 7.443330 12.994500 -0.242716 -4.980390 89.062700 2.920850 -72.200000 -5.348130 -0.000001 -0.000004 -52.118400 13.157300 -17.564100 -24.328900 0.000322 -0.000009 0.645865 8.363410 -4.438800 -22.291500 -0.000108 -0.000004 -15.188400 5.213770 2.372110 -2.192480 -6.469440 -0.000000 -171.712000 -6.226460 2.047190 39.081100 -0.000007 -0.000012 0.022698 -0.075326 16.769300 40.985400 -0.000006 -0.000013 -1.036620 12.458400 -70.825700 11.754300 -0.000000 0.000003 -0.001634 0.191667 -8.801100 -2.192510 6.469440 -0.000001 178.923000 6.503740 -175.636000 -39.081100 -0.002282 -0.040193 0.008680 -0.023989 12.563200 -40.985400 0.000008 0.000006 -5.180650 6.392000 -69.197200 -11.754300 -0.000006 -0.000006 -0.010645 0.276062 -5.356390
0.000000 0.000000 0.000000 0.000000 0.000000 -0.000000 -1.952790 92.678800 3.154070 86.996000 -0.968360 2.462110 15.735700 0.000005 -0.000001 86.445700 86.635100 -87.805600 8.984550 -0.406207 -0.000000 -1.051390 -0.312526 -2.721600 16.377300 -0.000001 -0.000001 -0.443827 1.720230 -4.056840 6.456720 -0.000001 -0.000000 2.273400 2.276560 -5.477430 12.994200 -0.242716 4.980390 -92.779000 8.645770 -72.104300 5.348090 -0.000007 -0.000001 -67.592300 17.018400 2.247330 24.328600 0.000019 0.000005 12.307600 25.957200 -26.494200 22.291600 -0.000001 0.000005 -1.656510 4.986030 7.615110 12.994500 -0.242716 -4.980390 89.297100 2.157300 -71.947600 -5.348130 -0.000001 -0.000004 -46.398700 7.153630 -19.712300 -24.328900 0.000322 -0.000009 0.506152 9.200770 -3.169030 -22.291500 -0.000108 -0.000004 -12.667800 5.233000 1.878760 -2.192480 -6.469440 -0.000000 -171.648000 -6.237400 2.173580 39.081100 -0.000007 -0.000012 0.018959 -0.062727 16.817400 40.985400 -0.000006 -0.000013 -1.017150 12.072800 -70.840900 11.754300 -0.000000 0.000003 -0.001487 0.189731 -8.879810 -2.192510 6.469440 -0.000001 178.872000 6.670420 -175.475000 -39.081100 -0.002282 -0.040193 0.004252 -0.004193 12.335400 -40.985400 0.000008 0.000006 -5.475090 7.017040 -68.964900 -11.754300 -0.000006 -0.000006 -0.010897 0.277890 -5.281550
